<svg width="81" height="120" viewBox="0 0 81 120" fill="none" xmlns="http://www.w3.org/2000/svg">
<g clip-path="url(#clip0_44_106)">
<path d="M20.008 120C31.048 120 40.008 111.04 40.008 100V80H20.008C8.968 80 0.00799561 88.96 0.00799561 100C0.00799561 111.04 8.968 120 20.008 120Z" fill="#0ACF83"/>
<path d="M0.00799561 60C0.00799561 48.96 8.968 40 20.008 40H40.008V80H20.008C8.968 80 0.00799561 71.04 0.00799561 60Z" fill="#A259FF"/>
<path d="M0.00799561 20C0.00799561 8.96 8.968 0 20.008 0H40.008V40H20.008C8.968 40 0.00799561 31.04 0.00799561 20Z" fill="#F24E1E"/>
<path d="M40.008 0H60.008C71.048 0 80.008 8.96 80.008 20C80.008 31.04 71.048 40 60.008 40H40.008V0Z" fill="#FF7262"/>
<path d="M80.008 60C80.008 71.04 71.048 80 60.008 80C48.968 80 40.008 71.04 40.008 60C40.008 48.96 48.968 40 60.008 40C71.048 40 80.008 48.96 80.008 60Z" fill="#1ABCFE"/>
</g>
<defs>
<clipPath id="clip0_44_106">
<rect width="80.016" height="120" fill="white"/>
</clipPath>
</defs>
</svg>
