<svg width="48" height="36" viewBox="0 0 48 36" fill="none" xmlns="http://www.w3.org/2000/svg">
<path d="M44.0125 35.9577H2.93989C1.34728 35.9577 0.00613403 34.6585 0.00613403 33.024V3.35109C0.00613403 1.75848 1.30537 0.417328 2.93989 0.417328H44.0125C45.6051 0.417328 46.9463 1.71656 46.9463 3.35109V33.024C46.9463 34.6585 45.6471 35.9577 44.0125 35.9577Z" fill="#E3E3E3"/>
<path opacity="0.1" d="M5.87368 35.9578L23.4343 21.8339L23.5601 21.0795L5.45457 8.0452L5.41266 35.3292L5.87368 35.9578Z" fill="#231F20"/>
<path d="M2.93989 35.9579C1.30537 35.9579 0.00613403 34.6586 0.00613403 33.0241V3.30931C0.00613403 1.67478 1.30537 1.38141 2.93989 1.38141C4.57442 1.38141 5.87365 1.7167 5.87365 3.30931V35.9579H2.93989Z" fill="#D54B3D"/>
<path d="M2.93989 1.80052C5.03544 1.80052 5.45455 2.42918 5.45455 3.30931V35.5388H2.93989C1.55684 35.5388 0.425243 34.4072 0.425243 33.0241V3.30931C0.425243 2.38727 0.844351 1.80052 2.93989 1.80052ZM2.93989 1.38141C1.30537 1.38141 0.00613403 1.7167 0.00613403 3.30931V33.0241C0.00613403 34.6586 1.30537 35.9579 2.93989 35.9579H5.87365V3.30931C5.87365 1.67478 4.57442 1.38141 2.93989 1.38141Z" fill="#D72B27"/>
<path d="M44.0126 35.9579H41.0788V3.22549C41.0788 1.59096 42.378 1.38141 44.0126 1.38141C45.6471 1.38141 46.9463 1.59096 46.9463 3.22549V33.066C46.9463 34.6586 45.6471 35.9579 44.0126 35.9579Z" fill="#D54B3D"/>
<path d="M44.0126 1.80052C45.8985 1.80052 46.5272 2.17771 46.5272 3.22549V33.066C46.5272 34.4491 45.3956 35.5807 44.0126 35.5807H41.4979V3.22549C41.4979 2.1358 42.1266 1.80052 44.0126 1.80052ZM44.0126 1.38141C42.378 1.38141 41.0788 1.59096 41.0788 3.22549V35.9998H44.0126C45.6471 35.9998 46.9463 34.7005 46.9463 33.066V3.22549C46.9463 1.59096 45.6471 1.38141 44.0126 1.38141Z" fill="#D72B27"/>
<path d="M31.4393 35.9577L0.251678 4.52788L1.89212 5.19516L23.6019 20.8279L46.9463 3.70999V33.0659C46.9463 34.6585 45.6471 35.9577 44.0125 35.9577H31.4393Z" fill="url(#paint0_linear_77_37)"/>
<path d="M23.4343 21.8338L1.26346 5.74003C-0.0357797 4.77608 -0.412977 2.932 0.550972 1.63276C1.51492 0.333525 3.40091 0.0401488 4.74206 1.0041L23.4762 14.6251L42.3361 0.836455C43.6353 -0.127495 45.4794 0.165881 46.4434 1.50703C47.4073 2.80627 47.1139 4.65034 45.7728 5.61429L23.4343 21.8338Z" fill="#D54B3D"/>
<path d="M44.0125 0.668834C44.8088 0.668834 45.5632 1.04603 46.0662 1.71661C46.8625 2.8482 46.611 4.3989 45.5213 5.23712L23.4343 21.3309L1.51493 5.40476C0.383337 4.56654 0.0899613 2.97393 0.886268 1.88425C1.34729 1.25559 2.14359 0.836477 2.98181 0.836477C3.52665 0.836477 4.07149 1.00412 4.4906 1.33941L23.1828 14.9185L23.4343 15.0862L23.6858 14.9185L42.5037 1.12985C42.9648 0.836477 43.4677 0.668834 44.0125 0.668834ZM44.0125 0.249725C43.4258 0.249725 42.7971 0.417369 42.2942 0.794566L23.4343 14.5832L4.70016 0.96221C4.19723 0.585012 3.56856 0.417369 2.9399 0.417369C2.01786 0.417369 1.09582 0.836477 0.50907 1.63278C-0.412969 2.93202 -0.0357713 4.7761 1.26347 5.74005L23.4343 21.8757L45.7309 5.61431C47.0301 4.65036 47.3235 2.8482 46.4015 1.50705C45.8147 0.668834 44.9346 0.249725 44.0125 0.249725Z" fill="#D72B27"/>
<defs>
<linearGradient id="paint0_linear_77_37" x1="0.253495" y1="19.8331" x2="46.9613" y2="19.8331" gradientUnits="userSpaceOnUse">
<stop stop-opacity="0.1"/>
<stop offset="1" stop-opacity="0.2"/>
</linearGradient>
</defs>
</svg>
