<svg width="120" height="120" viewBox="0 0 120 120" fill="none" xmlns="http://www.w3.org/2000/svg">
<path d="M60 116.949C91.4524 116.949 116.949 91.4521 116.949 60.0001C116.949 28.5479 91.4524 3.0509 60 3.0509C28.548 3.0509 3.05103 28.5479 3.05103 60.0001C3.05103 91.4521 28.548 116.949 60 116.949Z" fill="white"/>
<path d="M60 0C26.8629 0 0 26.8629 0 60C0 93.1373 26.8629 120 60 120C93.1373 120 120 93.1373 120 60C120 26.8629 93.1373 0 60 0ZM60 6.1017C89.7671 6.1017 113.898 30.2328 113.898 60C113.898 89.7671 89.7671 113.898 60 113.898C30.2328 113.898 6.1017 89.7671 6.1017 60C6.1017 30.2328 30.2328 6.1017 60 6.1017Z" fill="#4000BF"/>
<path d="M60.6776 17.2881C84.267 17.2881 103.39 36.4108 103.39 59.9999C103.39 83.5889 84.267 102.712 60.6776 102.712C37.0886 102.712 17.9658 83.5889 17.9658 59.9999C17.9658 54.2351 19.108 48.7368 21.1784 43.7189C24.2015 47.8357 29.0766 50.5083 34.576 50.5083C43.7497 50.5083 51.186 43.0717 51.186 33.8983C51.186 28.3989 48.5137 23.5237 44.3966 20.5007C49.4145 18.4303 54.9127 17.2881 60.6776 17.2881Z" fill="url(#paint0_linear_44_120)"/>
<defs>
<linearGradient id="paint0_linear_44_120" x1="60.6776" y1="102.712" x2="60.6776" y2="17.2881" gradientUnits="userSpaceOnUse">
<stop stop-color="#7400E1"/>
<stop offset="1" stop-color="#4000BF"/>
</linearGradient>
</defs>
</svg>
