<svg width="40" height="39" viewBox="0 0 40 39" fill="none" xmlns="http://www.w3.org/2000/svg">
<path d="M19.8762 0C11.7329 0 9.3513 0.00840071 8.88836 0.046804C7.21721 0.185716 6.17733 0.448838 5.04443 1.01289C4.17136 1.44642 3.4828 1.94896 2.80324 2.65342C1.56564 3.93813 0.815573 5.51867 0.54405 7.39743C0.412039 8.3095 0.373636 8.49552 0.365835 13.1543C0.362835 14.7072 0.365835 16.751 0.365835 19.4924C0.365835 27.629 0.374836 30.0082 0.413839 30.4703C0.548851 32.0964 0.803872 33.1195 1.34392 34.2386C2.37601 36.3808 4.34717 37.9889 6.66937 38.589C7.47344 38.796 8.36151 38.91 9.50161 38.964C9.98465 38.985 14.9081 39 19.8345 39C24.7609 39 29.6873 38.994 30.1584 38.97C31.4785 38.9079 32.245 38.805 33.0926 38.586C34.244 38.2907 35.3171 37.7476 36.237 36.9947C37.1568 36.2417 37.9011 35.297 38.4181 34.2266C38.9476 33.1345 39.2161 32.0724 39.3376 30.5312C39.364 30.1952 39.3751 24.8376 39.3751 19.4873C39.3751 14.136 39.3631 8.78834 39.3367 8.45232C39.2137 6.88618 38.9452 5.83309 38.3986 4.72C37.95 3.80882 37.452 3.12836 36.7289 2.43261C35.4388 1.2001 33.8607 0.450038 31.9798 0.178815C31.0686 0.047104 30.8871 0.00810069 26.2247 0H19.8762Z" fill="url(#paint0_radial_77_30)"/>
<path d="M19.8762 0C11.7329 0 9.3513 0.00840071 8.88836 0.046804C7.21721 0.185716 6.17733 0.448838 5.04443 1.01289C4.17136 1.44642 3.4828 1.94896 2.80324 2.65342C1.56564 3.93813 0.815573 5.51867 0.54405 7.39743C0.412039 8.3095 0.373636 8.49552 0.365835 13.1543C0.362835 14.7072 0.365835 16.751 0.365835 19.4924C0.365835 27.629 0.374836 30.0082 0.413839 30.4703C0.548851 32.0964 0.803872 33.1195 1.34392 34.2386C2.37601 36.3808 4.34717 37.9889 6.66937 38.589C7.47344 38.796 8.36151 38.91 9.50161 38.964C9.98465 38.985 14.9081 39 19.8345 39C24.7609 39 29.6873 38.994 30.1584 38.97C31.4785 38.9079 32.245 38.805 33.0926 38.586C34.244 38.2907 35.3171 37.7476 36.237 36.9947C37.1568 36.2417 37.9011 35.297 38.4181 34.2266C38.9476 33.1345 39.2161 32.0724 39.3376 30.5312C39.364 30.1952 39.3751 24.8376 39.3751 19.4873C39.3751 14.136 39.3631 8.78834 39.3367 8.45232C39.2137 6.88618 38.9452 5.83309 38.3986 4.72C37.95 3.80882 37.452 3.12836 36.7289 2.43261C35.4388 1.2001 33.8607 0.450038 31.9798 0.178815C31.0686 0.047104 30.8871 0.00810069 26.2247 0H19.8762Z" fill="url(#paint1_radial_77_30)"/>
<path d="M19.8672 5.10043C15.9561 5.10043 15.4652 5.11754 13.9291 5.18744C12.396 5.25765 11.3495 5.50037 10.4338 5.8565C9.48663 6.22433 8.68316 6.71637 7.88269 7.51714C7.08162 8.31761 6.58958 9.12107 6.22055 10.068C5.86352 10.9839 5.6205 12.0307 5.5515 13.5632C5.48309 15.0994 5.46509 15.5905 5.46509 19.5017C5.46509 23.4128 5.48249 23.9021 5.5521 25.4383C5.6226 26.9714 5.86532 28.0179 6.22115 28.9335C6.58928 29.8807 7.08132 30.6842 7.88209 31.4847C8.68226 32.2857 9.48573 32.779 10.4323 33.1468C11.3486 33.5029 12.3954 33.7457 13.9282 33.8159C15.4643 33.8858 15.9549 33.9029 19.8657 33.9029C23.7771 33.9029 24.2665 33.8858 25.8026 33.8159C27.3357 33.7457 28.3834 33.5029 29.2997 33.1468C30.2466 32.779 31.0489 32.2857 31.849 31.4847C32.6501 30.6842 33.1421 29.8807 33.5112 28.9338C33.8652 28.0179 34.1082 26.9711 34.1802 25.4386C34.2492 23.9024 34.2672 23.4128 34.2672 19.5017C34.2672 15.5905 34.2492 15.0997 34.1802 13.5635C34.1082 12.0304 33.8652 10.9839 33.5112 10.0683C33.1421 9.12107 32.6501 8.31761 31.849 7.51714C31.048 6.71607 30.2469 6.22403 29.2988 5.8565C28.3807 5.50037 27.3336 5.25765 25.8005 5.18744C24.2644 5.11754 23.7753 5.10043 19.863 5.10043H19.8672ZM18.5753 7.69565C18.9587 7.69505 19.3866 7.69565 19.8672 7.69565C23.7123 7.69565 24.1681 7.70945 25.6865 7.77846C27.0906 7.84267 27.8527 8.07729 28.3603 8.2744C29.0324 8.53542 29.5115 8.84745 30.0153 9.35149C30.5193 9.85554 30.8313 10.3356 31.093 11.0076C31.2901 11.5147 31.525 12.2767 31.5889 13.6809C31.6579 15.199 31.6729 15.655 31.6729 19.4984C31.6729 23.3417 31.6579 23.7977 31.5889 25.3158C31.5247 26.72 31.2901 27.482 31.093 27.9891C30.8319 28.6611 30.5193 29.1397 30.0153 29.6434C29.5112 30.1475 29.0327 30.4595 28.3603 30.7205C27.8533 30.9185 27.0906 31.1525 25.6865 31.2167C24.1684 31.2857 23.7123 31.3008 19.8672 31.3008C16.0218 31.3008 15.566 31.2857 14.0479 31.2167C12.6438 31.1519 11.8817 30.9173 11.3738 30.7202C10.7017 30.4592 10.2217 30.1472 9.71765 29.6431C9.2136 29.1391 8.90158 28.6602 8.63996 27.9879C8.44284 27.4808 8.20792 26.7188 8.14401 25.3146C8.07501 23.7965 8.06121 23.3405 8.06121 19.4948C8.06121 15.649 8.07501 15.1954 8.14401 13.6773C8.20822 12.2731 8.44284 11.5111 8.63996 11.0034C8.90098 10.3314 9.2136 9.85134 9.71765 9.34729C10.2217 8.84325 10.7017 8.53122 11.3738 8.2696C11.8814 8.07158 12.6438 7.83757 14.0479 7.77306C15.3764 7.71305 15.8913 7.69505 18.5753 7.69205V7.69565ZM27.5545 10.0869C27.2126 10.0869 26.8785 10.1882 26.5943 10.3781C26.3101 10.5681 26.0886 10.838 25.9578 11.1538C25.827 11.4696 25.7928 11.8171 25.8596 12.1524C25.9263 12.4876 26.0909 12.7955 26.3327 13.0372C26.5744 13.2789 26.8824 13.4434 27.2177 13.51C27.5529 13.5766 27.9004 13.5423 28.2162 13.4114C28.532 13.2805 28.8018 13.0589 28.9916 12.7747C29.1815 12.4904 29.2827 12.1562 29.2826 11.8144C29.2826 10.8603 28.5085 10.0863 27.5545 10.0863V10.0869ZM19.8672 12.106C15.783 12.106 12.4716 15.4174 12.4716 19.5017C12.4716 23.5859 15.783 26.8958 19.8672 26.8958C23.9515 26.8958 27.2619 23.5859 27.2619 19.5017C27.2619 15.4174 23.9512 12.106 19.8669 12.106H19.8672ZM19.8672 14.7012C22.5182 14.7012 24.6676 16.8503 24.6676 19.5017C24.6676 22.1527 22.5182 24.3021 19.8672 24.3021C17.2159 24.3021 15.0668 22.1527 15.0668 19.5017C15.0668 16.8503 17.2159 14.7012 19.8672 14.7012Z" fill="white"/>
<defs>
<radialGradient id="paint0_radial_77_30" cx="0" cy="0" r="1" gradientUnits="userSpaceOnUse" gradientTransform="translate(10.7268 42.0038) rotate(-90) scale(38.6519 35.9591)">
<stop stop-color="#FFDD55"/>
<stop offset="0.1" stop-color="#FFDD55"/>
<stop offset="0.5" stop-color="#FF543E"/>
<stop offset="1" stop-color="#C837AB"/>
</radialGradient>
<radialGradient id="paint1_radial_77_30" cx="0" cy="0" r="1" gradientUnits="userSpaceOnUse" gradientTransform="translate(-6.16999 2.80949) rotate(78.6776) scale(17.2777 71.2375)">
<stop stop-color="#3771C8"/>
<stop offset="0.128" stop-color="#3771C8"/>
<stop offset="1" stop-color="#6600FF" stop-opacity="0"/>
</radialGradient>
</defs>
</svg>
