<svg width="109" height="120" viewBox="0 0 109 120" fill="none" xmlns="http://www.w3.org/2000/svg">
<g clip-path="url(#clip0_44_116)">
<path d="M101.755 59.026C101.755 52.8632 96.7592 47.8673 90.5964 47.8673C90.1999 47.8673 89.809 47.8885 89.4235 47.9287L104.75 2.72522H39.6176L54.9225 47.8897C54.6982 47.8762 54.4726 47.8673 54.2445 47.8673C48.0816 47.8673 43.0857 52.8632 43.0857 59.026C43.0857 64.0075 46.3503 68.2249 50.8565 69.6598C48.4764 73.7822 45.4819 77.495 42.0821 80.7023C37.4589 85.0639 32.1678 88.3709 26.4456 90.4088C19.6323 86.9088 16.4148 79.1245 19.3181 72.2998C19.6459 71.5293 19.9804 70.7478 20.3006 69.9702C25.2363 68.8181 28.9143 64.3929 28.9143 59.1061C28.9143 52.9433 23.9184 47.9474 17.7555 47.9474C11.5923 47.9474 6.59639 52.9433 6.59639 59.1061C6.59639 62.8855 8.47696 66.223 11.351 68.2418C8.5889 74.5306 4.52926 81.1115 3.26438 88.7389C1.74848 97.8805 3.25972 107.584 11.1657 113.064C29.5787 125.825 49.5657 105.153 70.6395 99.9557C78.2767 98.0722 86.6601 98.3758 93.389 94.4786C98.4422 91.5519 101.773 86.7019 102.719 81.2565C103.653 75.8773 102.291 70.5214 99.1601 66.1785C100.779 64.2415 101.755 61.7483 101.755 59.026ZM65.4023 59.0654C65.4023 59.0523 65.4036 59.0391 65.4036 59.026C65.4036 54.9791 63.2487 51.435 60.0244 49.479L72.2059 24.8468L84.4086 49.7402C81.4119 51.7408 79.4372 55.1525 79.4372 59.026C79.4372 59.1074 79.4419 59.1875 79.4436 59.2685L65.4023 59.0654Z" fill="#C63D14"/>
<path d="M104.48 59.026C104.48 52.2479 99.5966 46.5922 93.1637 45.3842L108.551 0H35.816L51.2269 45.4762C45.0178 46.8581 40.3603 52.4069 40.3603 59.026C40.3603 63.9969 42.9872 68.3631 46.9243 70.8165C45.0305 73.6376 42.7849 76.2924 40.2115 78.72C36.1306 82.5702 31.5838 85.49 26.682 87.4109C21.745 84.3095 19.658 78.4613 21.8256 73.3662L21.9952 72.9676C22.1012 72.7183 22.2076 72.4681 22.3137 72.2179C27.7361 70.3272 31.6393 65.1655 31.6393 59.1061C31.6393 51.4503 25.4108 45.2222 17.7549 45.2222C10.0991 45.2222 3.87097 51.4503 3.87097 59.1061C3.87097 62.9703 5.45895 66.4694 8.015 68.989C7.55153 69.977 7.06433 70.9811 6.56355 72.0098C4.22631 76.8102 1.5774 82.2513 0.575421 88.2933C-1.41454 100.293 1.79493 109.885 9.61274 115.303C14.3568 118.591 19.1742 119.885 24.0221 119.884C33.151 119.884 42.385 115.298 51.4168 110.812C57.9219 107.581 64.6478 104.24 71.2919 102.602C73.764 101.992 76.3077 101.625 79.0007 101.237C84.3409 100.466 89.8635 99.67 94.7551 96.837C100.425 93.5529 104.306 88.044 105.404 81.723C106.346 76.2967 105.212 70.8623 102.446 66.2531C103.736 64.1466 104.48 61.6719 104.48 59.026ZM99.0297 59.026C99.0297 63.6763 95.2465 67.4599 90.5958 67.4599C85.9459 67.4599 82.1623 63.6763 82.1623 59.026C82.1623 54.3757 85.9459 50.5925 90.5958 50.5925C95.2465 50.5925 99.0297 54.3757 99.0297 59.026ZM100.948 5.45046L87.36 45.5266C86.771 45.6678 86.1969 45.8459 85.6393 46.0601L72.2163 18.6772L58.7542 45.8981C58.1725 45.6975 57.5737 45.5326 56.9597 45.4105L43.4184 5.45046H100.948ZM54.2443 50.5925C58.8946 50.5925 62.6778 54.3757 62.6778 59.026C62.6778 63.6763 58.8946 67.4599 54.2443 67.4599C49.5944 67.4599 45.8108 63.6763 45.8108 59.026C45.8108 54.3757 49.5944 50.5925 54.2443 50.5925ZM17.7549 50.6726C22.4057 50.6726 26.1889 54.4558 26.1889 59.1061C26.1889 63.7565 22.4057 67.5401 17.7549 67.5401C13.105 67.5401 9.32143 63.7565 9.32143 59.1061C9.32143 54.4558 13.105 50.6726 17.7549 50.6726ZM100.033 80.7905C99.2129 85.5176 96.293 89.6472 92.0231 92.1201C88.0427 94.4256 83.2728 95.1138 78.2226 95.8418C75.5173 96.2319 72.7196 96.6356 69.9867 97.3098C62.7604 99.0916 55.761 102.568 48.9922 105.93C35.4467 112.658 23.7481 118.468 12.7179 110.824C4.63804 105.224 5.01118 94.8628 5.95252 89.185C6.82475 83.9249 9.1832 79.0804 11.464 74.3953C11.8588 73.5846 12.2421 72.7904 12.6182 72.0013C13.7496 72.4537 14.9525 72.762 16.2064 72.9019C13.8848 80.5645 17.5361 88.8958 25.1996 92.8329L26.2482 93.3719L27.3592 92.9762C33.4177 90.8188 39 87.3562 43.9518 82.6847C47.1528 79.6652 49.9035 76.3242 52.1652 72.7543C52.8437 72.8565 53.5378 72.9104 54.2443 72.9104C61.9001 72.9104 68.1286 66.6823 68.1286 59.026C68.1286 54.9087 66.3252 51.2061 63.469 48.6611L72.1946 31.0164L81.0089 48.9973C78.3643 51.5271 76.7118 55.0859 76.7118 59.026C76.7118 66.6823 82.9399 72.9104 90.5958 72.9104C93.5373 72.9104 96.2659 71.9885 98.5132 70.4222C100.074 73.6164 100.655 77.2105 100.033 80.7905Z" fill="white"/>
</g>
<defs>
<clipPath id="clip0_44_116">
<rect width="108.551" height="120" fill="white"/>
</clipPath>
</defs>
</svg>
