<svg width="40" height="39" viewBox="0 0 40 39" fill="none" xmlns="http://www.w3.org/2000/svg">
<path d="M0.810028 2.79375C0.810028 1.25161 2.09284 0 3.67436 0H36.7002C38.2822 0 39.5645 1.25161 39.5645 2.79375V36.2068C39.5645 37.7494 38.2822 39 36.7002 39H3.67436C2.09284 39 0.810028 37.7494 0.810028 36.2073V2.79324V2.79375Z" fill="#006699"/>
<path d="M12.5579 32.6467V15.0361H6.70445V32.6467H12.5584H12.5579ZM9.63221 12.6321C11.673 12.6321 12.9436 11.2798 12.9436 9.58981C12.9052 7.86149 11.673 6.54697 9.67108 6.54697C7.66758 6.54697 6.35919 7.86149 6.35919 9.58981C6.35919 11.2798 7.62921 12.6321 9.59384 12.6321H9.63169H9.63221ZM15.7977 32.6467H21.6507V22.8133C21.6507 22.2875 21.689 21.7607 21.8435 21.3853C22.2665 20.3331 23.2296 19.2442 24.847 19.2442C26.9645 19.2442 27.8121 20.8589 27.8121 23.2266V32.6467H33.665V22.5494C33.665 17.1404 30.7777 14.6234 26.9267 14.6234C23.7692 14.6234 22.3826 16.388 21.6123 17.59H21.6512V15.0367H15.7982C15.8744 16.6888 15.7977 32.6472 15.7977 32.6472V32.6467Z" fill="white"/>
</svg>
