<svg width="61" height="53" viewBox="0 0 61 53" fill="none" xmlns="http://www.w3.org/2000/svg">
<rect x="2" y="2" width="57" height="49" rx="4" fill="#2E2E35" stroke="#E4AA48" stroke-width="4"/>
<path d="M16.2754 15.8047L21.8125 30.5176L27.3364 15.8047H31.6475V35H28.3252V28.6719L28.6548 20.208L22.9858 35H20.5996L14.9438 20.2212L15.2734 28.6719V35H11.9512V15.8047H16.2754Z" fill="#E4AA48"/>
<path d="M36.0044 27.604H32.2866V35H28.9512V15.8047H35.7012C37.916 15.8047 39.6255 16.3013 40.8296 17.2944C42.0337 18.2876 42.6357 19.7246 42.6357 21.6055C42.6357 22.8887 42.3237 23.9653 41.6997 24.8354C41.0845 25.6968 40.2231 26.3604 39.1157 26.8262L43.4268 34.8286V35H39.854L36.0044 27.604ZM32.2866 24.9277H35.7144C36.8394 24.9277 37.7183 24.6465 38.3511 24.084C38.9839 23.5127 39.3003 22.7349 39.3003 21.7505C39.3003 20.7222 39.0059 19.9268 38.417 19.3643C37.8369 18.8018 36.9668 18.5117 35.8066 18.4941H32.2866V24.9277Z" fill="#E4AA48"/>
<rect x="46" y="33" width="15" height="20" fill="#2E2E35"/>
<path d="M59 35H61V31H59V35ZM41 35H59V31H41V35Z" fill="#E4AA48"/>
<line x1="41" y1="51" x2="61" y2="51" stroke="#E4AA48" stroke-width="4"/>
</svg>
