<svg width="150" height="90" viewBox="0 0 150 90" fill="none" xmlns="http://www.w3.org/2000/svg">
<path d="M35.2007 23.4733H63.3379V25.7096H37.78V42.5413H61.8138V44.7777H37.78V63.2573H63.631V65.4936H35.2007V23.4733ZM65.8585 23.4733H68.848L82.0959 41.9528L95.6369 23.4733L114.055 0L83.7959 43.8949L99.3886 65.4936H96.2818L82.0959 45.8371L67.8515 65.4936H64.8033L80.5132 43.8949L65.8585 23.4733ZM100.502 25.7096V23.4733H132.567V25.7096H117.795V65.4936H115.216V25.7096H100.502ZM0 23.4733H3.22405L47.6818 90L29.3095 65.4936L2.69648 26.6513L2.57924 65.4936H0V23.4733ZM132.307 62.5824C131.78 62.5824 131.385 62.1741 131.385 61.6464C131.385 61.1188 131.78 60.7105 132.307 60.7105C132.84 60.7105 133.229 61.1188 133.229 61.6464C133.229 62.1741 132.84 62.5824 132.307 62.5824ZM134.841 60.12H136.222C136.24 60.8675 136.786 61.37 137.589 61.37C138.486 61.37 138.994 60.8298 138.994 59.8185V53.4114H140.4V59.8248C140.4 61.6464 139.346 62.6954 137.602 62.6954C135.964 62.6954 134.841 61.6778 134.841 60.12ZM142.238 60.0384H143.63C143.75 60.8989 144.59 61.4454 145.801 61.4454C146.93 61.4454 147.758 60.8612 147.758 60.0572C147.758 59.3663 147.231 58.9517 146.033 58.669L144.866 58.3863C143.229 58.0032 142.482 57.2117 142.482 55.88C142.482 54.2657 143.8 53.1916 145.776 53.1916C147.614 53.1916 148.956 54.2657 149.038 55.7921H147.67C147.539 54.9567 146.811 54.4353 145.757 54.4353C144.647 54.4353 143.906 54.9692 143.906 55.7858C143.906 56.4328 144.383 56.8034 145.563 57.0798L146.56 57.3248C148.417 57.7582 149.182 58.512 149.182 59.8751C149.182 61.6087 147.84 62.6954 145.694 62.6954C143.687 62.6954 142.338 61.659 142.238 60.0384Z" fill="black"/>
</svg>
