<svg width="109" height="120" viewBox="0 0 109 120" fill="none" xmlns="http://www.w3.org/2000/svg">
<g clip-path="url(#clip0_44_112)">
<path d="M49.5762 1.52346C52.5388 -0.172283 56.3975 -0.179943 59.3575 1.52346C74.249 9.93794 89.1452 18.3392 104.034 26.7588C106.835 28.3362 108.708 31.4528 108.679 34.6797V85.3044C108.7 88.6648 106.642 91.8559 103.687 93.3976C88.8447 101.766 74.0098 110.144 59.1698 118.512C56.146 120.241 52.2098 120.108 49.2805 118.237C44.8307 115.658 40.3732 113.091 35.923 110.514C35.0136 109.972 33.9885 109.54 33.3464 108.658C33.9141 107.893 34.929 107.798 35.7536 107.464C37.6111 106.873 39.317 105.925 41.0234 105.005C41.4549 104.71 41.9817 104.823 42.3953 105.087C46.2005 107.269 49.9719 109.514 53.7898 111.675C54.6043 112.145 55.429 111.521 56.1251 111.133C70.6903 102.901 85.2732 94.7001 99.8358 86.4656C100.375 86.2061 100.674 85.6333 100.63 85.0422C100.64 68.3422 100.632 51.6392 100.635 34.9392C100.697 34.2686 100.309 33.652 99.7022 33.3775C84.9111 25.0477 70.1277 16.7052 55.3392 8.37325C55.083 8.1971 54.7794 8.10259 54.4685 8.10214C54.1576 8.10168 53.8538 8.1953 53.5971 8.3707C38.8085 16.7052 24.0277 25.0554 9.23915 33.3848C8.6349 33.6597 8.22936 34.266 8.30128 34.9392C8.30383 51.6392 8.30128 68.3422 8.30128 85.0448C8.27564 85.3332 8.33898 85.6225 8.48277 85.8738C8.62657 86.1251 8.84391 86.3263 9.10554 86.4503C13.0519 88.6882 17.0034 90.9103 20.9524 93.1405C23.177 94.338 25.9085 95.0495 28.3596 94.132C30.5226 93.3563 32.0387 91.149 31.9975 88.8524C32.0179 72.2499 31.9873 55.6448 32.0128 39.0448C31.9587 38.3077 32.6579 37.6988 33.3745 37.7682C35.2707 37.7554 37.1694 37.7426 39.0656 37.7733C39.857 37.7554 40.4017 38.549 40.3039 39.2916C40.2962 55.9992 40.3243 72.7073 40.2911 89.415C40.2962 93.8678 38.4668 98.7129 34.3481 100.892C29.2741 103.52 23.0026 102.963 17.9898 100.442C13.6502 98.2763 9.50894 95.7201 5.24638 93.3997C2.28425 91.8665 0.236168 88.6627 0.257019 85.3048V34.6797C0.225955 31.386 2.17362 28.2128 5.06128 26.6584C19.9013 18.2835 34.7387 9.90219 49.5762 1.52346Z" fill="#8CC84B"/>
<path d="M62.5226 36.5915C68.9949 36.1749 75.9238 36.3447 81.7481 39.5332C86.2575 41.9766 88.7575 47.1047 88.837 52.1145C88.7111 52.7902 88.0047 53.163 87.3596 53.1166C85.4817 53.1141 83.6034 53.1421 81.7255 53.1038C80.9289 53.1345 80.466 52.4 80.366 51.6958C79.8264 49.2987 78.5192 46.9247 76.263 45.7685C72.7996 44.0345 68.7838 44.1217 65.0072 44.1579C62.2502 44.3043 59.2855 44.543 56.9498 46.1643C55.1566 47.3924 54.6119 49.8715 55.2519 51.8681C55.8553 53.3017 57.5102 53.7643 58.8643 54.1907C66.6643 56.2307 74.9298 56.0277 82.5809 58.7124C85.7485 59.8068 88.8473 61.9345 89.9315 65.2511C91.3498 69.6962 90.7281 75.0094 87.5655 78.5779C85.0009 81.5145 81.2655 83.1127 77.54 83.9808C72.5838 85.0859 67.4404 85.114 62.4072 84.6234C57.6745 84.0838 52.7494 82.8404 49.0957 79.6157C45.9715 76.903 44.4455 72.6762 44.597 68.5966C44.6332 67.9077 45.3192 67.4272 45.9792 67.4838C47.8702 67.4685 49.7613 67.4634 51.6523 67.4864C52.4077 67.4323 52.9677 68.0851 53.0064 68.797C53.3553 71.0808 54.2136 73.4779 56.2051 74.8319C60.0485 77.3115 64.8711 77.1417 69.2719 77.2111C72.9179 77.0494 77.0106 77.0004 79.986 74.5906C81.5558 73.2162 82.0209 70.9166 81.5966 68.9383C81.137 67.2681 79.3898 66.4898 77.8894 65.9809C70.1894 63.5451 61.8315 64.4289 54.206 61.6745C51.1102 60.5804 48.1166 58.5119 46.9272 55.3315C45.2677 50.8302 46.0281 45.2626 49.5221 41.8145C52.9289 38.3847 57.8468 37.0639 62.5226 36.5911V36.5915Z" fill="#8CC84B"/>
</g>
<defs>
<clipPath id="clip0_44_112">
<rect width="108.96" height="120" fill="white"/>
</clipPath>
</defs>
</svg>
