<svg width="135" height="120" viewBox="0 0 135 120" fill="none" xmlns="http://www.w3.org/2000/svg">
<path d="M134.749 60.0137C134.749 51.0872 123.571 42.6276 106.432 37.3815C110.387 19.913 108.629 6.01511 100.883 1.56557C99.0982 0.521858 97.0107 0.0274658 94.731 0.0274658V6.15244C95.9945 6.15244 97.0107 6.39963 97.8622 6.86656C101.598 9.00893 103.218 17.1664 101.955 27.6585C101.653 30.2403 101.158 32.9595 100.554 35.7336C95.1705 34.4152 89.2927 33.3989 83.1128 32.7398C79.4049 27.6585 75.5596 23.0442 71.6869 19.0066C80.6409 10.6844 89.0455 6.12497 94.7585 6.12497V0C87.2053 0 77.3175 5.38338 67.3197 14.7219C57.322 5.43832 47.4342 0.109865 39.881 0.109865V6.23484C45.5665 6.23484 53.9986 10.7668 62.9526 19.0341C59.1073 23.0716 55.2621 27.6585 51.6091 32.7398C45.4017 33.3989 39.5239 34.4152 34.1405 35.761C33.5088 33.0144 33.0419 30.3502 32.7123 27.7958C31.4214 17.3037 33.0144 9.14626 36.7224 6.97642C37.5463 6.48203 38.6175 6.2623 39.881 6.2623V0.137331C37.5738 0.137331 35.4864 0.631723 33.6736 1.67544C25.9556 6.12497 24.2252 19.9954 28.2078 37.409C11.1238 42.6825 0 51.1147 0 60.0137C0 68.9403 11.1788 77.3999 28.3177 82.6459C24.3626 100.114 26.1204 114.012 33.8659 118.462C35.6512 119.506 37.7386 120 40.0458 120C47.599 120 57.4868 114.617 67.4845 105.278C77.4823 114.562 87.3701 119.89 94.9233 119.89C97.2305 119.89 99.3179 119.396 101.131 118.352C108.849 113.902 110.579 100.032 106.596 82.6184C123.626 77.3724 134.749 68.9128 134.749 60.0137ZM98.9883 41.6937C97.9721 45.2369 96.7086 48.8899 95.2804 52.5429C94.1543 50.3456 92.9732 48.1483 91.6823 45.951C90.4189 43.7537 89.073 41.6113 87.7272 39.5239C91.6274 40.1007 95.3902 40.8148 98.9883 41.6937ZM86.4088 70.9453C84.2664 74.6532 82.0691 78.1689 79.7894 81.4374C75.697 81.7945 71.5496 81.9867 67.3747 81.9867C63.2273 81.9867 59.0799 81.7945 55.0149 81.4649C52.7352 78.1964 50.5104 74.7082 48.368 71.0277C46.2806 67.4296 44.3854 63.7766 42.6551 60.0961C44.358 56.4156 46.2806 52.7352 48.3406 49.1371C50.4829 45.4292 52.6802 41.9135 54.9599 38.645C59.0524 38.2879 63.1998 38.0957 67.3747 38.0957C71.5221 38.0957 75.6695 38.2879 79.7345 38.6175C82.0142 41.886 84.239 45.3742 86.3813 49.0547C88.4688 52.6528 90.3639 56.3058 92.0943 59.9863C90.3639 63.6667 88.4687 67.3472 86.4088 70.9453ZM95.2804 67.3747C96.7635 71.0552 98.027 74.7356 99.0707 78.3062C95.4726 79.1852 91.6823 79.9268 87.7546 80.5035C89.1005 78.3886 90.4463 76.2188 91.7098 73.994C92.9732 71.7967 94.1543 69.572 95.2804 67.3747ZM67.4296 96.6812C64.8753 94.0444 62.3209 91.1055 59.794 87.892C62.266 88.0018 64.7929 88.0842 67.3472 88.0842C69.929 88.0842 72.4834 88.0293 74.9828 87.892C72.5109 91.1055 69.9565 94.0444 67.4296 96.6812ZM46.9947 80.5035C43.0945 79.9268 39.3316 79.2126 35.7336 78.3337C36.7498 74.7906 38.0133 71.1376 39.4415 67.4846C40.5676 69.6818 41.7487 71.8792 43.0396 74.0764C44.3305 76.2737 45.6489 78.4161 46.9947 80.5035ZM67.2923 23.3463C69.8466 25.9831 72.401 28.9219 74.9279 32.1355C72.4559 32.0256 69.929 31.9432 67.3747 31.9432C64.7929 31.9432 62.2385 31.9982 59.7391 32.1355C62.211 28.9219 64.7654 25.9831 67.2923 23.3463ZM46.9673 39.5239C45.6214 41.6388 44.2756 43.8087 43.0121 46.0334C41.7487 48.2307 40.5676 50.428 39.4415 52.6253C37.9583 48.9448 36.6949 45.2644 35.6512 41.6937C39.2493 40.8423 43.0396 40.1007 46.9673 39.5239ZM22.1103 73.9116C12.3873 69.7642 6.0975 64.3259 6.0975 60.0137C6.0975 55.7015 12.3873 50.2357 22.1103 46.1158C24.4724 45.0996 27.0542 44.1932 29.7185 43.3417C31.284 48.7251 33.344 54.3282 35.8984 60.0687C33.3715 65.7816 31.339 71.3573 29.8009 76.7132C27.0817 75.8617 24.4999 74.9279 22.1103 73.9116ZM36.8872 113.161C33.1517 111.019 31.5312 102.861 32.7947 92.3689C33.0968 89.7871 33.5912 87.068 34.1955 84.2939C39.5789 85.6123 45.4566 86.6285 51.6365 87.2877C55.3445 92.3689 59.1897 96.9833 63.0625 101.021C54.1085 109.343 45.7038 113.902 39.9908 113.902C38.7549 113.875 37.7111 113.628 36.8872 113.161ZM102.037 92.2316C103.328 102.724 101.735 110.881 98.027 113.051C97.203 113.545 96.1318 113.765 94.8684 113.765C89.1829 113.765 80.7507 109.233 71.7968 100.966C75.642 96.9284 79.4873 92.3415 83.1403 87.2602C89.3477 86.6011 95.2254 85.5848 100.609 84.239C101.241 87.013 101.735 89.6773 102.037 92.2316ZM112.612 73.9116C110.249 74.9279 107.668 75.8343 105.003 76.6857C103.438 71.3024 101.378 65.6992 98.8235 59.9588C101.35 54.2458 103.383 48.6702 104.921 43.3143C107.64 44.1657 110.222 45.0996 112.639 46.1158C122.362 50.2632 128.652 55.7015 128.652 60.0137C128.624 64.3259 122.335 69.7917 112.612 73.9116Z" fill="#61DAFB"/>
<path d="M67.3472 72.5658C74.2795 72.5658 79.8993 66.9461 79.8993 60.0137C79.8993 53.0814 74.2795 47.4617 67.3472 47.4617C60.4149 47.4617 54.7952 53.0814 54.7952 60.0137C54.7952 66.9461 60.4149 72.5658 67.3472 72.5658Z" fill="#61DAFB"/>
</svg>
