<svg width="120" height="120" viewBox="0 0 120 120" fill="none" xmlns="http://www.w3.org/2000/svg">
<path d="M108.281 0H11.7188C5.24666 0 0 5.24666 0 11.7188V108.281C0 114.753 5.24666 120 11.7188 120H108.281C114.753 120 120 114.753 120 108.281V11.7188C120 5.24666 114.753 0 108.281 0Z" fill="#3178C6"/>
<path fill-rule="evenodd" clip-rule="evenodd" d="M74.2969 95.3906V107.109C76.1953 108.094 78.5156 108.82 81.0938 109.313C83.6719 109.805 86.4844 110.039 89.2969 110.039C92.1094 110.039 94.6875 109.781 97.2656 109.242C99.8438 108.703 101.953 107.813 103.828 106.664C105.727 105.422 107.344 103.852 108.281 101.742C109.219 99.6328 109.945 97.2891 109.945 94.2422C109.945 92.1094 109.617 90.2578 108.984 88.6172C108.352 86.9766 107.438 85.5703 106.172 84.3985C104.977 83.1563 103.594 82.0547 101.953 81.1172C100.312 80.1797 98.4375 79.1953 96.3281 78.3047C94.7812 77.6719 93.5156 77.0625 92.1094 76.4532C90.8906 75.8438 89.8359 75.2344 89.0625 74.625C88.1953 73.9922 87.5391 73.336 87.0703 72.6563C86.6016 71.9531 86.3672 71.1797 86.3672 70.3125C86.3672 69.5156 86.5758 68.7891 87 68.1328C87.4242 67.4766 88.0078 66.9375 88.7578 66.4688C89.5078 66 90.4453 65.6485 91.5703 65.3906C92.6719 65.1328 93.8906 65.0156 95.3203 65.0156C96.3047 65.0156 97.3359 65.0883 98.3672 65.236C99.4453 65.3836 100.547 65.611 101.648 65.9156C102.75 66.2203 103.828 66.5953 104.93 67.0641C105.961 67.5328 106.922 68.0719 107.742 68.6813V57.6656C105.961 56.986 103.992 56.4703 101.883 56.1422C99.7734 55.8141 97.4297 55.65 94.6172 55.65C91.8047 55.65 89.2266 55.9547 86.6484 56.5407C84.0703 57.1266 81.9609 58.0641 80.0859 59.3532C78.1875 60.6188 76.8047 62.1656 75.6328 64.275C74.5313 66.2438 73.9922 68.4938 73.9922 71.3063C73.9922 74.8219 75 77.8688 77.0391 80.2125C79.0547 82.7906 82.1953 84.6656 86.1797 86.5406C87.7969 87.1969 89.2266 87.8531 90.6328 88.486C92.0391 89.1188 93.2109 89.775 94.1484 90.4547C95.1562 91.1344 95.9531 91.8844 96.4922 92.6813C97.0781 93.4781 97.3828 94.4156 97.3828 95.4938C97.3828 96.2438 97.2 96.9469 96.8438 97.6031C96.4875 98.2594 95.9297 98.8219 95.1797 99.2907C94.4297 99.7594 93.5156 100.134 92.3672 100.416C91.2656 100.673 90.0234 100.814 88.3828 100.814C85.8047 100.814 83.2266 100.369 80.8828 99.4781C78.3047 98.5875 75.9609 97.2516 73.8516 95.4938L74.2969 95.3906ZM54.6094 66.5625H69.6094V56.9531H27.6562V66.5625H42.6562V109.453H54.6094V66.5625Z" fill="white"/>
</svg>
